<svg width="36" height="37" viewBox="0 0 36 37" fill="none" xmlns="http://www.w3.org/2000/svg">
<path d="M30.9707 23.2014C29.9934 27.4833 26.7405 30.8266 22.5744 31.831C19.5656 32.5563 16.4344 32.5563 13.4256 31.831C9.25951 30.8266 6.00655 27.4833 5.02931 23.2014C4.32356 20.1091 4.32356 16.8909 5.02931 13.7986C6.00655 9.51672 9.25951 6.1734 13.4256 5.16902C16.4344 4.44366 19.5656 4.44366 22.5743 5.16902C26.7405 6.1734 29.9934 9.51671 30.9707 13.7986C31.6764 16.8909 31.6764 20.1091 30.9707 23.2014Z" fill="#FFF860" stroke="black" stroke-width="1.5"/>
<path d="M30.9707 23.2014C31.6764 20.1091 31.6764 16.8909 30.9707 13.7986C29.9934 9.51671 26.7405 6.1734 22.5743 5.16902C19.5656 4.44366 16.4344 4.44366 13.4256 5.16902C9.25951 6.1734 6.00655 9.51672 5.02931 13.7986C4.32356 16.8909 4.32356 20.1091 5.02931 23.2014C6.00655 27.4833 9.25951 30.8266 13.4256 31.831" stroke="#646464" stroke-width="1.5" stroke-linecap="round"/>
<path d="M18 13.1042L18 23.8959M18 23.8959L21.75 20.0417M18 23.8959L14.25 20.0417" stroke="black" stroke-width="1.5" stroke-linecap="round" stroke-linejoin="round"/>
</svg>
